<svg width="31" height="24" viewBox="0 0 31 24" fill="none" xmlns="http://www.w3.org/2000/svg">
<path d="M27.8474 0.681818C26.3338 0.204545 24.6702 0 23.0747 0C20.4156 0 17.552 0.545454 15.5747 2.04545C13.5974 0.545454 10.7338 0 8.07471 0C5.41562 0 2.55198 0.545454 0.574707 2.04545V22.0227C0.574707 22.3636 0.915616 22.7045 1.25653 22.7045C1.39289 22.7045 1.46107 22.6364 1.59743 22.6364C3.43834 21.75 6.09743 21.1364 8.07471 21.1364C10.7338 21.1364 13.5974 21.6818 15.5747 23.1818C17.4156 22.0227 20.7565 21.1364 23.0747 21.1364C25.3247 21.1364 27.6429 21.5455 29.552 22.5682C29.6883 22.6364 29.7565 22.6364 29.8929 22.6364C30.2338 22.6364 30.5747 22.2955 30.5747 21.9545V2.04545C29.7565 1.43182 28.8702 1.02273 27.8474 0.681818ZM27.8474 19.0909C26.3474 18.6136 24.7111 18.4091 23.0747 18.4091C20.7565 18.4091 17.4156 19.2955 15.5747 20.4545V4.77273C17.4156 3.61364 20.7565 2.72727 23.0747 2.72727C24.7111 2.72727 26.3474 2.93182 27.8474 3.40909V19.0909Z" fill="white"/>
<path d="M23.0756 8.18168C24.2756 8.18168 25.4347 8.30441 26.4847 8.53623V6.4635C25.4074 6.25896 24.2483 6.13623 23.0756 6.13623C20.7574 6.13623 18.6574 6.53168 16.9392 7.26805V9.53168C18.4801 8.65896 20.621 8.18168 23.0756 8.18168ZM16.9392 10.8953V13.159C18.4801 12.2862 20.621 11.809 23.0756 11.809C24.2756 11.809 25.4347 11.9317 26.4847 12.1635V10.0908C25.4074 9.88623 24.2483 9.7635 23.0756 9.7635C20.7574 9.7635 18.6574 10.1726 16.9392 10.8953ZM23.0756 13.4044C20.7574 13.4044 18.6574 13.7999 16.9392 14.5362V16.7999C18.4801 15.9271 20.621 15.4499 23.0756 15.4499C24.2756 15.4499 25.4347 15.5726 26.4847 15.8044V13.7317C25.4074 13.5135 24.2483 13.4044 23.0756 13.4044Z" fill="white"/>
</svg>
