<svg width="43" height="25" viewBox="0 0 43 25" fill="none" xmlns="http://www.w3.org/2000/svg">
<path d="M15.8964 24.9625C10.8744 24.5237 6.44402 22.6596 3.55653 19.7773C1.91356 18.1344 0.916547 16.351 0.467187 14.2499C0.260061 13.295 0.261816 11.7082 0.467187 10.7445C1.09383 7.82369 2.98255 5.26796 5.95428 3.31957C12.7333 -1.12663 23.1177 -1.10381 29.8335 3.37223C30.7252 3.96552 31.301 4.4377 32.1084 5.23286C33.1265 6.23865 33.8426 7.23742 34.5974 8.70837C34.6255 8.76103 34.7642 8.83124 34.9064 8.85932C35.3803 8.95762 36.0175 9.32975 36.5283 9.80719C36.925 10.1758 37.2321 10.5795 37.9887 11.7257C38.7522 12.8807 42.2084 18.2151 42.4191 18.5644C42.4998 18.7013 42.3383 18.919 42.1558 18.919C42.0276 18.919 41.9346 18.8312 41.745 18.5328L39.7861 15.4926C36.451 10.3285 36.2702 10.0898 35.3417 9.62464L34.8537 9.3789H33.4196C31.9873 9.3789 31.9855 9.38065 31.9504 9.53161C31.7608 10.3566 31.7257 10.5602 31.7679 10.5988C31.7942 10.6234 32.6069 11.0868 33.5758 11.6274L35.3347 12.6139L35.2258 12.8439C35.1644 12.9703 35.0959 13.0756 35.0714 13.0756C35.0468 13.0756 33.5653 12.2541 31.7802 11.2518C29.9932 10.2513 28.4275 9.40172 28.3011 9.36661C27.7921 9.22618 27.0127 9.78788 27.0127 10.2952C27.0127 10.8077 27.1654 10.9587 30.3022 13.5267C32.2593 15.131 33.3792 16.093 33.5495 16.3211C33.8619 16.7354 34.1761 17.3462 34.4675 18.0975C34.9766 19.421 35.8068 20.1582 37.1672 20.4988L37.6148 20.6111L37.5779 20.8569C37.5675 20.951 37.5457 21.0435 37.513 21.1324C37.4551 21.1974 36.5528 20.9095 36.0315 20.6585C35.2153 20.2671 34.6536 19.7089 34.1024 18.7382C33.8624 18.8104 33.6253 18.8918 33.3915 18.9822C32.7052 19.2314 32.6718 19.2525 32.0224 19.8862C29.256 22.5858 25.289 24.3113 20.497 24.8976C19.7194 24.9941 16.7231 25.0363 15.8964 24.9625ZM20.6655 24.1323C22.8632 23.8409 24.5676 23.4056 26.3527 22.6754C28.2256 21.9083 29.9915 20.806 31.2272 19.6334L31.7134 19.17L30.4882 18.5855C29.1788 17.9588 29.0489 17.8553 28.8821 17.2953C28.7768 16.9443 28.8962 16.5669 29.2297 16.2053L29.4912 15.9227L28.9225 15.4909C28.4731 15.1486 28.3327 14.9994 28.245 14.7712C28.176 14.5937 28.1526 14.4018 28.1768 14.2129C28.201 14.0241 28.2721 13.8443 28.3836 13.6899L28.5556 13.4477L26.76 13.1317C26.0749 13.0174 25.3925 12.8874 24.7133 12.7421C24.5641 12.6841 24.4306 12.5918 24.3239 12.4725C24.2171 12.3532 24.14 12.2104 24.0989 12.0557C24.0603 11.8943 24.9415 7.59726 25.1381 6.9829C25.2067 6.82482 25.3093 6.68376 25.4385 6.56971C25.5677 6.45566 25.7204 6.3714 25.8858 6.3229C26.1825 6.26849 31.4765 7.1988 31.7398 7.35327C32.1575 7.5955 32.2892 7.98869 32.1575 8.59076L32.1014 8.84353H32.3945C32.556 8.84353 32.9387 8.82246 33.2423 8.79964L33.797 8.75576L33.5214 8.24672C32.6894 6.69854 31.1869 5.14334 29.3297 3.9076C28.4626 3.33186 26.6143 2.42085 25.5014 2.0224C23.7725 1.42329 21.9802 1.02629 20.16 0.839317C19.1507 0.733998 16.5054 0.733998 15.526 0.841072C13.1756 1.09735 11.0429 1.62921 9.17703 2.42436C4.85897 4.26568 1.95393 7.31465 1.21144 10.7919C1.01835 11.6994 1.0008 13.2897 1.17984 14.1165C1.57303 15.942 2.43138 17.5235 3.8286 18.9962C6.67221 21.9925 11.0201 23.8339 16.2316 24.2516C16.9285 24.306 19.9546 24.2253 20.6655 24.1323ZM19.7124 20.8604C19.4438 20.7831 19.1718 20.4619 19.1156 20.1583C19.077 19.9581 19.1226 19.8212 19.407 19.2701C20.5585 17.0408 21.0587 14.9924 21.0587 12.5033C21.0587 10.0986 20.6164 8.22917 19.5158 5.98588C19.2788 5.50493 19.0858 5.05732 19.0858 4.99413C19.0858 4.75541 19.2859 4.40962 19.5018 4.27446C19.7984 4.08664 20.2952 4.12175 20.5339 4.34467C20.6252 4.43244 20.8621 4.82036 21.0605 5.21179C21.8486 6.75646 22.3875 8.45385 22.6543 10.2197C22.8193 11.3132 22.8526 13.3845 22.721 14.385C22.4997 16.1581 21.9898 17.8829 21.2114 19.4912C20.7375 20.4654 20.4426 20.8674 20.1934 20.8674C20.1334 20.8689 20.0739 20.8777 20.0161 20.8937C19.9136 20.9039 19.8102 20.8925 19.7124 20.8604ZM16.5072 19.1841C16.0965 19.0629 15.7981 18.5574 15.9174 18.1783C15.9473 18.087 16.1403 17.664 16.3492 17.2392C17.219 15.5014 17.5891 13.5562 17.4182 11.6204C17.2708 10.0652 16.9917 9.084 16.2895 7.64816C15.8174 6.6845 15.7963 6.5353 16.0701 6.14913C16.3299 5.78051 16.9811 5.71908 17.3217 6.03328C17.5586 6.25094 18.2959 7.78859 18.5785 8.65922C19.5187 11.5459 19.374 14.6763 18.1712 17.4639C17.5534 18.9137 17.1198 19.3613 16.5072 19.1841ZM13.2037 17.4832C13.0722 17.4193 12.9563 17.3275 12.8641 17.2141C12.7719 17.1007 12.7057 16.9684 12.6701 16.8267C12.6332 16.6617 12.6947 16.4791 12.9983 15.8665C14.1077 13.6197 14.12 11.4537 13.0334 9.25778C12.5578 8.29236 12.5472 8.10103 12.9509 7.72013C13.1493 7.53231 13.2336 7.49896 13.5126 7.49896C13.9813 7.49896 14.2253 7.73593 14.6431 8.59603C15.2873 9.91953 15.5523 11.0675 15.5488 12.5385C15.5488 14.048 15.3013 15.0872 14.6132 16.4826C14.2183 17.2813 14.0234 17.4919 13.6303 17.5463C13.4851 17.5593 13.3389 17.5377 13.2037 17.4832ZM10.1196 15.8999C9.88116 15.7737 9.70113 15.5596 9.61761 15.3031C9.54214 15.0363 9.60357 14.8239 9.90724 14.3254C10.2969 13.6847 10.3882 13.3424 10.3882 12.5033C10.3882 11.6661 10.2969 11.322 9.90724 10.6813C9.79173 10.4981 9.69303 10.3048 9.61235 10.1038C9.48772 9.68257 9.83878 9.16475 10.311 9.07523C10.7112 8.99975 10.9868 9.18055 11.3554 9.75453C11.8776 10.5837 12.1547 11.5436 12.1547 12.5235C12.1547 13.5034 11.8776 14.4634 11.3554 15.2925C10.978 15.8753 10.5585 16.0824 10.1196 15.8999ZM33.0966 18.4854C33.453 18.3573 33.7619 18.2379 33.7812 18.2169C33.8023 18.1976 33.7338 17.9694 33.6285 17.7096C33.4143 17.1795 33.4494 17.1918 32.6912 17.3375C31.8697 17.4954 31.394 17.355 30.497 16.695C30.2513 16.5142 30.0003 16.3668 29.9353 16.3668C29.8721 16.3668 29.7335 16.4598 29.6246 16.5757C29.3964 16.8214 29.3613 17.2076 29.5474 17.4358C29.7106 17.6341 31.9645 18.7066 32.233 18.7119C32.3506 18.7154 32.7403 18.6136 33.0966 18.4854ZM32.7421 16.76C33.0756 16.6933 33.1124 16.6705 33.0545 16.5634C32.9913 16.444 29.8739 13.8567 29.6036 13.6987C29.3806 13.5688 29.1998 13.5987 29.0155 13.797C28.4731 14.3763 28.5363 14.4991 29.9388 15.5751C31.631 16.8706 31.81 16.9478 32.7421 16.76ZM28.5574 12.8439C28.5574 12.8263 28.2046 12.5227 27.771 12.1681C26.7038 11.2887 26.4756 10.9604 26.4756 10.311C26.4756 9.76682 26.8372 9.24374 27.42 8.94182C27.7643 8.7873 28.1504 8.75209 28.517 8.84177C28.7242 8.90847 29.6545 9.41225 30.9446 10.1547L31.2167 10.311L31.4414 9.24725C31.6696 8.15896 31.6748 7.8746 31.4624 7.80789C30.5425 7.63183 29.6209 7.46448 28.6978 7.30588C26.1123 6.8495 25.8297 6.82317 25.7103 7.01801C25.6453 7.12332 24.6624 11.6801 24.6624 11.8749C24.6624 11.9715 24.7115 12.0926 24.7712 12.1418C24.8309 12.1927 25.6699 12.3735 26.6353 12.5455C28.4995 12.8807 28.5574 12.8895 28.5574 12.8439Z" fill="white"/>
</svg>
