<svg width="26" height="28" viewBox="0 0 26 28" fill="none" xmlns="http://www.w3.org/2000/svg">
<path d="M12.578 27.9998C13.108 27.9876 13.6166 27.7883 14.0139 27.4373C14.4111 27.0862 14.6714 26.606 14.7487 26.0815H10.3232C10.4027 26.6203 10.6752 27.1118 11.09 27.4646C11.5047 27.8175 12.0335 28.0077 12.578 27.9998Z" fill="#F2F2F2"/>
<path d="M25.0719 22.8253L24.7858 22.5729C23.9743 21.8499 23.264 21.0207 22.6741 20.1078C22.0298 18.848 21.6437 17.4721 21.5383 16.061V11.9048C21.5349 11.3999 21.4898 10.8962 21.4037 10.3988C19.9785 10.1058 18.6984 9.32944 17.78 8.20101C16.8616 7.07257 16.3614 5.66144 16.364 4.20651V3.67647C15.4856 3.24418 14.5418 2.95991 13.5708 2.83513V1.77504C13.5708 1.47716 13.4525 1.19147 13.2418 0.98083C13.0312 0.770191 12.7455 0.651855 12.4476 0.651855C12.1497 0.651855 11.864 0.770191 11.6534 0.98083C11.4428 1.19147 11.3244 1.47716 11.3244 1.77504V2.8772C9.15017 3.18391 7.16028 4.26687 5.72213 5.92615C4.28399 7.58543 3.49469 9.70899 3.49997 11.9048V16.061C3.3946 17.4721 3.00844 18.848 2.36416 20.1078C1.78438 21.0184 1.08549 21.8475 0.286055 22.5729L0 22.8253V25.1979H25.0719V22.8253Z" fill="#F2F2F2"/>
</svg>
