<svg width="20" height="25" viewBox="0 0 20 25" fill="none" xmlns="http://www.w3.org/2000/svg">
<path d="M1.11684 25H18.6053C18.6053 24.7283 18.7672 23.313 19.0911 20.7541C19.415 18.1952 19.5769 16.5082 19.5769 15.6929C19.5769 15.5457 19.5415 15.407 19.4706 15.2768C19.3998 15.1466 19.2834 15.0306 19.1215 14.9287C18.9595 14.8268 18.7976 14.7362 18.6357 14.6569C18.4737 14.5777 18.246 14.4928 17.9525 14.4022C17.659 14.3116 17.4009 14.238 17.1783 14.1814C16.9556 14.1248 16.6444 14.0455 16.2447 13.9436C15.8449 13.8417 15.5185 13.7568 15.2655 13.6889C15.0024 13.5756 14.7468 13.4454 14.4989 13.2982C14.2509 13.151 14.0915 13.0605 14.0207 13.0265C13.9498 13.1284 13.884 13.6577 13.8233 14.6145C13.7626 15.5712 13.6766 16.661 13.5652 17.8838C13.4539 19.1067 13.3173 20.0238 13.1553 20.6352C13.0845 20.9069 12.9377 21.1334 12.7151 21.3145C12.4924 21.4957 12.3001 21.6089 12.1382 21.6542C11.9763 21.6995 11.8447 21.7221 11.7435 21.7221H7.97864C7.87743 21.7221 7.74586 21.6995 7.58393 21.6542C7.422 21.6089 7.22971 21.4957 7.00706 21.3145C6.7844 21.1334 6.63765 20.9069 6.56681 20.6352C6.40488 20.0238 6.26825 19.1067 6.15692 17.8838C6.0456 16.661 5.95957 15.5712 5.89885 14.6145C5.83812 13.6577 5.77234 13.1284 5.70149 13.0265C5.63065 13.0605 5.47125 13.151 5.22329 13.2982C4.97534 13.4454 4.71979 13.5756 4.45666 13.6889C4.20364 13.7568 3.87725 13.8417 3.47748 13.9436C3.07772 14.0455 2.76651 14.1248 2.54385 14.1814C2.3212 14.238 2.06312 14.3116 1.76963 14.4022C1.47613 14.4928 1.24841 14.5777 1.08648 14.6569C0.924553 14.7362 0.762623 14.8268 0.600692 14.9287C0.438762 15.0306 0.322375 15.1466 0.25153 15.2768C0.180686 15.407 0.145264 15.5457 0.145264 15.6929C0.145264 16.5082 0.307194 18.1952 0.631054 20.7541C0.954915 23.313 1.11684 24.7283 1.11684 25ZM9.86108 13.587L12.7758 12.5V15.7609L9.86108 14.6739L6.94633 15.7609V12.5L9.86108 13.587ZM9.86108 17.3913C9.73963 17.3913 9.6283 17.3375 9.52709 17.23C9.42589 17.1224 9.37529 16.995 9.37529 16.8478C9.37529 16.7006 9.42589 16.5733 9.52709 16.4657C9.6283 16.3581 9.73963 16.3043 9.86108 16.3043C9.98252 16.3043 10.0939 16.3581 10.1951 16.4657C10.2963 16.5733 10.3469 16.7006 10.3469 16.8478C10.3469 16.995 10.2963 17.1224 10.1951 17.23C10.0939 17.3375 9.98252 17.3913 9.86108 17.3913ZM9.86108 19.5652C9.73963 19.5652 9.6283 19.5114 9.52709 19.4039C9.42589 19.2963 9.37529 19.1689 9.37529 19.0217C9.37529 18.8745 9.42589 18.7472 9.52709 18.6396C9.6283 18.532 9.73963 18.4783 9.86108 18.4783C9.98252 18.4783 10.0939 18.532 10.1951 18.6396C10.2963 18.7472 10.3469 18.8745 10.3469 19.0217C10.3469 19.1689 10.2963 19.2963 10.1951 19.4039C10.0939 19.5114 9.98252 19.5652 9.86108 19.5652ZM12.5026 11.0734C13.5551 11.9678 14.5368 12.3245 15.4477 12.1433C14.9619 11.8263 14.6734 11.3451 14.5824 10.6997C14.7443 10.9375 14.9796 11.0904 15.2883 11.1583C15.5969 11.2262 15.898 11.2036 16.1915 11.0904C15.6956 10.6035 15.3667 10.0996 15.2048 9.5788C15.0428 9.05797 14.9214 8.34466 14.8404 7.43886C14.7999 6.94067 14.7721 6.23585 14.7569 5.32439C14.7418 4.41293 14.6937 3.70245 14.6127 3.19293C14.5317 2.68342 14.3698 2.23619 14.1269 1.85122C13.8233 1.36436 13.1958 0.934103 12.2445 0.560462C11.2931 0.186821 10.4987 0 9.86108 0C8.98058 0 8.05454 0.243433 7.08296 0.730299C6.11138 1.21716 5.49908 1.87953 5.24606 2.71739C5.17522 2.95516 5.11703 3.45335 5.07148 4.21196C5.02594 4.97056 4.99305 5.72634 4.97281 6.47928C4.95257 7.23222 4.94245 7.62568 4.94245 7.65965C4.76027 9.66372 4.38581 10.9092 3.81905 11.3961C3.96074 11.498 4.1834 11.5008 4.48702 11.4046C4.79064 11.3083 5.05377 11.1639 5.27643 10.9715C5.26631 11.3111 5.03859 11.764 4.59328 12.3302C4.86654 12.3868 5.31944 12.2792 5.95198 12.0075C6.58452 11.7357 7.07284 11.4753 7.41694 11.2262C8.17599 11.7131 8.9907 11.9565 9.86108 11.9565C10.8225 11.9565 11.703 11.6621 12.5026 11.0734ZM6.8097 9.62976C6.71862 8.95041 6.77934 7.79552 6.99187 6.16508C7.20441 4.53465 7.51815 3.6062 7.93309 3.37976C8.00394 3.34579 8.13551 3.41655 8.3278 3.59205C8.52009 3.76755 8.62636 3.91757 8.6466 4.04212C8.70732 4.40444 8.6466 4.75543 8.46443 5.09511C8.65672 5.28759 9.02865 5.40648 9.58023 5.45177C10.1318 5.49706 10.6328 5.49989 11.0831 5.46026C11.5335 5.42063 11.8751 5.37251 12.1079 5.3159C12.2293 5.46309 12.3432 5.6216 12.4494 5.79144C12.5557 5.96128 12.6443 6.15093 12.7151 6.36039C12.7859 6.56986 12.8467 6.75102 12.8973 6.90387C12.9479 7.05673 12.9959 7.26619 13.0415 7.53227C13.087 7.79835 13.1174 7.98517 13.1326 8.09273C13.1478 8.20029 13.1705 8.39278 13.2009 8.67018C13.2312 8.94758 13.2515 9.10892 13.2616 9.15421C12.877 9.76562 12.3862 10.2497 11.7891 10.6063C11.1919 10.963 10.5493 11.1413 9.86108 11.1413C8.6466 11.1413 7.62947 10.6375 6.8097 9.62976Z" fill="white"/>
</svg>
